<?xml version="1.0" encoding="utf-8"?>
<!-- Generator: Adobe Illustrator 24.0.1, SVG Export Plug-In . SVG Version: 6.00 Build 0)  -->
<svg version="1.1" baseProfile="tiny" id="Layer_1" xmlns="http://www.w3.org/2000/svg" xmlns:xlink="http://www.w3.org/1999/xlink"
	 x="0px" y="0px" viewBox="0 0 452 110" xml:space="preserve">
<g>
	<path fill="#681F0E" d="M122,30.02h11.16c6.81,0.02,10.21,3.82,10.21,11.4v15.34c0,4.76-2.01,7.9-6.04,9.41l8.61,17.99h-8.4
		l-6.91-16.61l-0.97,0.14v16.47H122V30.02z M129.67,37.71v22.71h1.76c1.06,0,1.8-0.07,2.19-0.22c1.39-0.57,2.09-1.72,2.09-3.45
		V41.41c0-2.46-1.11-3.7-3.33-3.7H129.67z"/>
	<path fill="#681F0E" d="M160.4,30.02h7.66v54.13h-7.66V30.02z"/>
	<path fill="#681F0E" d="M205.03,30.02v7.7h-7.18v46.43h-7.67V37.71h-7.18v-7.7H205.03z"/>
	<path fill="#681F0E" d="M229.09,42.43l-5.42,41.71h-7.72l7.91-54.13h10.51l7.88,54.13h-7.75L229.09,42.43z"/>
	<path fill="#681F0E" d="M273.47,67.1l8.91-37.08h7.67v54.13h-7.34V53.77l-6.56,30.38h-5.2l-6.74-30.38v30.38h-7.42V30.02h7.66
		L273.47,67.1z"/>
	<path fill="#681F0E" d="M323.06,84.15h-10.51l-5.42-34.98l-2.49-19.15h7.75l5.39,41.71l5.42-41.71h7.75l-2.49,19.2L323.06,84.15z"
		/>
	<path fill="#681F0E" d="M355.18,42.43l-5.42,41.71h-7.72l7.91-54.13h10.51l7.88,54.13h-7.75L355.18,42.43z"/>
	<path fill="#681F0E" d="M382.87,30.02h11.16c6.81,0.02,10.21,3.82,10.21,11.4v15.34c0,4.76-2.01,7.9-6.04,9.41l8.61,17.99h-8.4
		l-6.91-16.61l-0.97,0.14v16.47h-7.66V30.02z M390.54,37.71v22.71h1.76c1.06,0,1.8-0.07,2.19-0.22c1.39-0.57,2.09-1.72,2.09-3.45
		V41.41c0-2.46-1.11-3.7-3.33-3.7H390.54z"/>
	<path fill="#681F0E" d="M431.84,42.43l-5.42,41.71h-7.72l7.91-54.13h10.51L445,84.15h-7.75L431.84,42.43z"/>
</g>
<path fill="#5D1009" d="M102.84,63.07c-2.22,5.19-5.97,13.35-15.05,22.05c-5.15,4.93-11.92,8.17-19.01,9.24
	c-14.03,2.11-24.1-0.57-34.48-9.75c-10.1-8.93-14.97-19.59-14.73-33.11c0.1-5.43,0.63-10.16,2.9-15.25c2.01-4.5-1.28-5.6-3.69-1.54
	C5.49,57.08,13.8,87.15,36.96,99.42c11.93,6.32,27.45,6.25,39.57,0.7c5.68-2.7,8.64-4.12,14.85-10.5
	c6.28-7.39,9.36-15.38,10.73-21.88"/>
<path fill="#5D1009" d="M102.57,57.08c2.13,0,3.87-1.72,3.87-3.88c0-2.12-1.73-3.84-3.87-3.84c-2.13,0-3.87,1.72-3.87,3.84
	C98.7,55.36,100.43,57.08,102.57,57.08"/>
<path fill="#5D1009" d="M100.23,45.02c1.6,0,2.9-1.31,2.9-2.91c0-1.6-1.3-2.89-2.9-2.89c-1.6,0-2.9,1.29-2.9,2.89
	C97.33,43.71,98.63,45.02,100.23,45.02"/>
<path fill="#5D1009" d="M36.26,21.99c1.6,0,2.9-1.29,2.9-2.89c0-1.6-1.3-2.91-2.9-2.91s-2.9,1.31-2.9,2.91
	C33.36,20.7,34.66,21.99,36.26,21.99"/>
<path fill="#5D1009" d="M95.16,34.4c1.2,0,2.17-0.97,2.17-2.17c0-1.2-0.97-2.17-2.17-2.17c-1.2,0-2.17,0.97-2.17,2.17
	C92.99,33.43,93.96,34.4,95.16,34.4"/>
<path fill="#5D1009" d="M46.68,17.02c1.2,0,2.17-0.97,2.17-2.17c0-1.2-0.97-2.17-2.17-2.17c-1.2,0-2.17,0.97-2.17,2.17
	C44.51,16.05,45.48,17.02,46.68,17.02"/>
<path fill="#5D1009" d="M89.03,27.76c1.08,0,1.96-0.88,1.96-1.96c0-1.09-0.88-1.96-1.96-1.96c-1.08,0-1.96,0.86-1.96,1.96
	C87.07,26.88,87.95,27.76,89.03,27.76"/>
<path fill="#5D1009" d="M59.19,15.84c1.19,0,2.15-0.97,2.15-2.15c0-1.18-0.96-2.15-2.15-2.15c-1.19,0-2.15,0.97-2.15,2.15
	C57.04,14.87,58.01,15.84,59.19,15.84"/>
<path fill="#5D1009" d="M26.23,29.73c2.13,0,3.87-1.72,3.87-3.84c0-2.15-1.73-3.88-3.87-3.88c-2.13,0-3.87,1.72-3.87,3.88
	C22.37,28.01,24.1,29.73,26.23,29.73"/>
<path fill="#5D1009" d="M71.49,17.6c1.08,0,1.96-0.88,1.96-1.96c0-1.09-0.88-1.96-1.96-1.96c-1.08,0-1.96,0.86-1.96,1.96
	C69.53,16.72,70.41,17.6,71.49,17.6"/>
<path fill="#5D1009" d="M40.36,40.16c-4.14,0-4.14,5.91,0,5.91C44.5,46.07,44.5,40.16,40.36,40.16 M42.16,43.76
	c0,1.84-3.58,1.84-3.58,0C38.58,41.91,42.16,41.91,42.16,43.76"/>
<path fill="#5D1009" d="M62.16,36.35c-4.47-4.52-9.97-7.01-15.48-7.01c-4.09,0-7.84,1.43-10.3,3.94c-2.75,2.8-4.1,6.99-3.35,10.43
	c0.56,2.58,2.22,4.51,4.67,5.44c1.14,0.44,2.27,0.66,3.35,0.66h0c2.46,0,4.6-1.14,5.88-3.12c1.25-1.95,1.44-4.46,0.48-6.55
	c-0.36-0.79-0.88-1.47-1.53-2.01c0.38-0.06,0.77-0.09,1.18-0.09c2.63,0,5.26,1.17,7.23,3.21c4.94,5.11,0.3,15.35-4.46,23.03
	c-3.26,5.26-4.39,10.67-3.18,15.25c0.87,3.3,2.87,5.88,5.79,7.48c2.05,1.12,4.17,1.69,6.3,1.69c7.75,0,13.72-7.29,14.51-17.73
	C73.65,65.87,73.99,48.3,62.16,36.35z M70.85,70.78c-0.91,12.03-9.14,18.54-17.24,14.1c-5.76-3.15-6.83-11.09-1.72-19.34
	c4.78-7.71,10.45-19.45,4.15-25.98c-5.23-5.42-13.37-4.96-15.88-0.49c0,0,3.82-0.66,5.07,2.06c1.49,3.25-1.38,7.76-6.65,5.75
	c-4.75-1.81-3.94-8.37-0.46-11.92c4.41-4.49,14.38-4.96,22.33,3.08C70.14,47.85,71.48,62.4,70.85,70.78z"/>
<path fill="#5D1009" d="M60.06,41.19c2.78,5.97,0.74,14.57-6.11,25.63c-2.51,4.06-3.47,8.24-2.61,11.47
	c0.52,1.98,1.71,3.53,3.44,4.47c1.33,0.73,2.67,1.1,3.98,1.1c5.11,0,9.1-5.45,9.69-13.26C68.77,66.22,69.08,51.64,60.06,41.19z
	 M66.03,70.42c-0.48,6.39-3.54,11.03-7.28,11.03c-0.9,0-1.85-0.27-2.82-0.8c-1.15-0.63-1.91-1.63-2.26-2.97
	c-0.67-2.56,0.2-6.14,2.33-9.59c3.93-6.35,6.36-12,7.26-16.93C66.49,59.22,66.25,67.47,66.03,70.42z"/>
<path fill="#5D1009" d="M40.41,40.32c-1.65,0-2.99,1.27-2.99,2.84c0,1.57,1.34,2.84,2.99,2.84c1.65,0,2.99-1.27,2.99-2.84
	C43.4,41.59,42.06,40.32,40.41,40.32z M40.36,44.98c-0.93,0-1.68-0.55-1.68-1.23c0-0.68,0.75-1.23,1.68-1.23
	c0.93,0,1.68,0.55,1.68,1.23C42.04,44.43,41.28,44.98,40.36,44.98z"/>
<path fill="#5D1009" d="M100.23,6.18c-22.1,3.51-37.62,30.64-37.62,30.64c2.39,2.51,4.16,5.16,5.44,7.49
	c-1.04-1.91-2.35-3.84-3.16-4.83c0.88-1.75,2.14-3.63,2.38-3.98c3.49-5.2,11.67-16.09,22.47-22.15c-4.45,3.11-8.5,7.12-11.65,11
	c-3.94,4.86-6.88,9.84-8.65,14.52c-0.12,0.32-1.12,2.92-1.34,5.52c-0.01-0.01-0.01-0.02-0.02-0.03c2.13,3.89,2.9,6.89,2.9,6.89
	c-3.1-14.69,20.51-42.66,35.84-40.21c11.82,1.89,9.45,14.44,9.45,14.44C120.31,21.24,117.16,3.49,100.23,6.18z"/>
</svg>
